<svg xmlns="http://www.w3.org/2000/svg" xmlns:xlink="http://www.w3.org/1999/xlink" width="1035" height="639"><rect width="1035" height="639" rx="5" ry="5" class="a"/><circle cx="20" cy="20" r="10.5" fill="#ff5f58"/><circle cx="54" cy="20" r="10.5" fill="#ffbd2e"/><circle cx="88" cy="20" r="10.5" fill="#18c132"/><svg height="586.17" viewBox="0 0 101 58.617" width="1010" x="12.5" xmlns="http://www.w3.org/2000/svg" xmlns:xlink="http://www.w3.org/1999/xlink" y="40"><style>@keyframes o{0%{transform:translateX(-101px)}.4%{transform:translateX(-505px)}1.2%{transform:translateX(-606px)}6.8%{transform:translateX(-707px)}10%{transform:translateX(-909px)}17.5%{transform:translateX(-1010px)}19.7%{transform:translateX(-1414px)}20.3%{transform:translateX(-1717px)}20.9%{transform:translateX(-2020px)}21.5%{transform:translateX(-2222px)}22.2%{transform:translateX(-2525px)}22.8%{transform:translateX(-2727px)}23.4%{transform:translateX(-3030px)}24%{transform:translateX(-3232px)}24.6%{transform:translateX(-3434px)}25.3%{transform:translateX(-3636px)}25.9%{transform:translateX(-3838px)}26.5%{transform:translateX(-4040px)}27.1%{transform:translateX(-4242px)}27.7%{transform:translateX(-4444px)}28.3%{transform:translateX(-4747px)}29%{transform:translateX(-5050px)}29.6%{transform:translateX(-5252px)}30.2%{transform:translateX(-5454px)}30.8%{transform:translateX(-5656px)}31.5%{transform:translateX(-5858px)}32.1%{transform:translateX(-6060px)}32.6%{transform:translateX(-6262px)}33%{transform:translateX(-6565px)}40.6%{transform:translateX(-6969px)}40.7%{transform:translateX(-7272px)}47.3%{transform:translateX(-7878px)}53.1%{transform:translateX(-8080px)}53.2%{transform:translateX(-8686px)}57.7%{transform:translateX(-9090px)}57.8%{transform:translateX(-9292px)}64.1%{transform:translateX(-9797px)}72.3%{transform:translateX(-10403px)}79.4%{transform:translateX(-11110px)}84.5%{transform:translateX(-11817px)}88.5%{transform:translateX(-12524px)}91.6%{transform:translateX(-13332px)}95.4%{transform:translateX(-13736px)}96%{transform:translateX(-14039px)}to{transform:translateX(-14140px)}}.a{fill:#212121}.f{fill:#d0d0d0}.g{fill:#71bef2}.i{fill:#6c99bb}.j{fill:#7dd6cf}.k{fill:#7e8e50}.l{fill:#d0d0d0;font-weight:700}.m{fill:#505050}</style><g font-size="1.67" font-family="Monaco,Consolas,Menlo,'Bitstream Vera Sans Mono','Powerline Symbols',monospace"><defs><symbol id="1">0<text y="1.67" class="f">kestrel</text><path class="g" d="M9.018 0h9v2.171h-9z"/><text x="9.018" y="1.67" class="h"> ~/reps</text><text x="18.036" y="1.67" class="i"></text></symbol><symbol id="2">0<text y="1.67" class="f">kestrel</text><path class="g" d="M9.018 0h9v2.171h-9z"/><text x="9.018" y="1.67" class="h"> ~/reps</text><text x="18.036" y="1.67" class="i"></text><text x="20.04" y="1.67" class="f">vue</text><text x="24.048" y="1.67" class="f">init</text><text x="29.058" y="1.67" class="f">webpack</text><text x="37.074" y="1.67" class="f">vue-test</text></symbol><symbol id="3"><text y="1.67" class="j">⠋</text><text x="2.004" y="1.67" class="f">downloading</text><text x="14.028" y="1.67" class="f">template</text></symbol><symbol id="4"><text y="1.67" class="j">⠙</text><text x="2.004" y="1.67" class="f">downloading</text><text x="14.028" y="1.67" class="f">template</text></symbol><symbol id="5"><text y="1.67" class="j">⠹</text><text x="2.004" y="1.67" class="f">downloading</text><text x="14.028" y="1.67" class="f">template</text></symbol><symbol id="6"><text y="1.67" class="j">⠸</text><text x="2.004" y="1.67" class="f">downloading</text><text x="14.028" y="1.67" class="f">template</text></symbol><symbol id="7"><text y="1.67" class="j">⠼</text><text x="2.004" y="1.67" class="f">downloading</text><text x="14.028" y="1.67" class="f">template</text></symbol><symbol id="8"><text y="1.67" class="j">⠴</text><text x="2.004" y="1.67" class="f">downloading</text><text x="14.028" y="1.67" class="f">template</text></symbol><symbol id="9"><text y="1.67" class="j">⠦</text><text x="2.004" y="1.67" class="f">downloading</text><text x="14.028" y="1.67" class="f">template</text></symbol><symbol id="10"><text y="1.67" class="j">⠧</text><text x="2.004" y="1.67" class="f">downloading</text><text x="14.028" y="1.67" class="f">template</text></symbol><symbol id="11"><text y="1.67" class="j">⠇</text><text x="2.004" y="1.67" class="f">downloading</text><text x="14.028" y="1.67" class="f">template</text></symbol><symbol id="12"><text y="1.67" class="j">⠏</text><text x="2.004" y="1.67" class="f">downloading</text><text x="14.028" y="1.67" class="f">template</text></symbol><symbol id="13"><text y="1.67" class="k">?</text><text x="2.004" y="1.67" class="l">Project</text><text x="10.02" y="1.67" class="l">name</text><text x="15.03" y="1.67" class="f">(vue-test)</text></symbol><symbol id="14"><text y="1.67" class="k">?</text><text x="2.004" y="1.67" class="l">Project</text><text x="10.02" y="1.67" class="l">name</text><text x="15.03" y="1.67" class="j">vue-test</text></symbol><symbol id="15"><text y="1.67" class="k">?</text><text x="2.004" y="1.67" class="l">Project</text><text x="10.02" y="1.67" class="l">description</text><text x="22.044" y="1.67" class="f">(A</text><text x="25.05" y="1.67" class="f">Vue.js</text><text x="32.064" y="1.67" class="f">project)</text></symbol><symbol id="16"><text y="1.67" class="k">?</text><text x="2.004" y="1.67" class="l">Project</text><text x="10.02" y="1.67" class="l">description</text><text x="22.044" y="1.67" class="j">A</text><text x="24.048" y="1.67" class="j">Vue.js</text><text x="31.062" y="1.67" class="j">project</text></symbol><symbol id="17"><text y="1.67" class="k">?</text><text x="2.004" y="1.67" class="l">Author</text><text x="9.018" y="1.67" class="f">(Evgeny</text><text x="17.034" y="1.67" class="f">Gusev</text><text x="23.046" y="1.67" class="f">&lt;bunopus@gmail.com&gt;)</text></symbol><symbol id="18"><text y="1.67" class="k">?</text><text x="2.004" y="1.67" class="l">Author</text><text x="9.018" y="1.67" class="j">Evgeny</text><text x="16.032" y="1.67" class="j">Gusev</text><text x="22.044" y="1.67" class="j">&lt;bunopus@gmail.com&gt;</text></symbol><symbol id="19"><text y="1.67" class="k">?</text><text x="2.004" y="1.67" class="l">Vue</text><text x="6.012" y="1.67" class="l">build</text><text x="12.024" y="1.67" class="f">(Use</text><text x="17.034" y="1.67" class="f">arrow</text><text x="23.046" y="1.67" class="f">keys)</text></symbol><symbol id="20"><text y="1.67" class="j">❯</text><text x="2.004" y="1.67" class="j">Runtime</text><text x="10.02" y="1.67" class="j">+</text><text x="12.024" y="1.67" class="j">Compiler:</text><text x="22.044" y="1.67" class="j">recommended</text><text x="34.068" y="1.67" class="j">for</text><text x="38.076" y="1.67" class="j">most</text><text x="43.086" y="1.67" class="j">users</text></symbol><symbol id="21"><text x="2.004" y="1.67" class="f">Runtime-only:</text><text x="16.032" y="1.67" class="f">about</text><text x="22.044" y="1.67" class="f">6KB</text><text x="26.052" y="1.67" class="f">lighter</text><text x="34.068" y="1.67" class="f">min+gzip,</text><text x="44.088" y="1.67" class="f">but</text><text x="48.096" y="1.67" class="f">templates</text><text x="58.116" y="1.67" class="f">(or</text><text x="62.124" y="1.67" class="f">any</text><text x="66.132" y="1.67" class="f">Vue-specific</text><text x="79.158" y="1.67" class="f">HTML)</text><text x="85.17" y="1.67" class="f">are</text><text x="89.178" y="1.67" class="f">ONLY</text><text x="94.188" y="1.67" class="f">allowed</text></symbol><symbol id="22"><text x="1.002" y="1.67" class="f">in</text><text x="4.008" y="1.67" class="f">.vue</text><text x="9.018" y="1.67" class="f">files</text><text x="15.03" y="1.67" class="f">-</text><text x="17.034" y="1.67" class="f">render</text><text x="24.048" y="1.67" class="f">functions</text><text x="34.068" y="1.67" class="f">are</text><text x="38.076" y="1.67" class="f">required</text><text x="47.094" y="1.67" class="f">elsewhere</text></symbol><symbol id="23"><text y="1.67" class="k">?</text><text x="2.004" y="1.67" class="l">Vue</text><text x="6.012" y="1.67" class="l">build</text><text x="12.024" y="1.67" class="j">standalone</text></symbol><symbol id="24"><text y="1.67" class="k">?</text><text x="2.004" y="1.67" class="l">Install</text><text x="10.02" y="1.67" class="l">vue-router?</text><text x="22.044" y="1.67" class="f">(Y/n)</text></symbol><symbol id="25"><text y="1.67" class="k">?</text><text x="2.004" y="1.67" class="l">Install</text><text x="10.02" y="1.67" class="l">vue-router?</text><text x="22.044" y="1.67" class="j">Yes</text></symbol><symbol id="26"><text y="1.67" class="k">?</text><text x="2.004" y="1.67" class="l">Use</text><text x="6.012" y="1.67" class="l">ESLint</text><text x="13.026" y="1.67" class="l">to</text><text x="16.032" y="1.67" class="l">lint</text><text x="21.042" y="1.67" class="l">your</text><text x="26.052" y="1.67" class="l">code?</text><text x="32.064" y="1.67" class="f">(Y/n)</text></symbol><symbol id="27"><text y="1.67" class="k">?</text><text x="2.004" y="1.67" class="l">Use</text><text x="6.012" y="1.67" class="l">ESLint</text><text x="13.026" y="1.67" class="l">to</text><text x="16.032" y="1.67" class="l">lint</text><text x="21.042" y="1.67" class="l">your</text><text x="26.052" y="1.67" class="l">code?</text><text x="32.064" y="1.67" class="j">Yes</text></symbol><symbol id="28"><text y="1.67" class="k">?</text><text x="2.004" y="1.67" class="l">Pick</text><text x="7.014" y="1.67" class="l">an</text><text x="10.02" y="1.67" class="l">ESLint</text><text x="17.034" y="1.67" class="l">preset</text><text x="24.048" y="1.67" class="f">(Use</text><text x="29.058" y="1.67" class="f">arrow</text><text x="35.07" y="1.67" class="f">keys)</text></symbol><symbol id="29"><text y="1.67" class="j">❯</text><text x="2.004" y="1.67" class="j">Standard</text><text x="11.022" y="1.67" class="j">(https://github.com/standard/standard)</text></symbol><symbol id="30"><text x="2.004" y="1.67" class="f">Airbnb</text><text x="9.018" y="1.67" class="f">(https://github.com/airbnb/javascript)</text></symbol><symbol id="31"><text x="2.004" y="1.67" class="f">none</text><text x="7.014" y="1.67" class="f">(configure</text><text x="18.036" y="1.67" class="f">it</text><text x="21.042" y="1.67" class="f">yourself)</text></symbol><symbol id="32"><text y="1.67" class="k">?</text><text x="2.004" y="1.67" class="l">Pick</text><text x="7.014" y="1.67" class="l">an</text><text x="10.02" y="1.67" class="l">ESLint</text><text x="17.034" y="1.67" class="l">preset</text><text x="24.048" y="1.67" class="j">Standard</text></symbol><symbol id="33"><text y="1.67" class="k">?</text><text x="2.004" y="1.67" class="l">Set</text><text x="6.012" y="1.67" class="l">up</text><text x="9.018" y="1.67" class="l">unit</text><text x="14.028" y="1.67" class="l">tests</text><text x="20.04" y="1.67" class="f">(Y/n)</text></symbol><symbol id="34"><text y="1.67" class="k">?</text><text x="2.004" y="1.67" class="l">Set</text><text x="6.012" y="1.67" class="l">up</text><text x="9.018" y="1.67" class="l">unit</text><text x="14.028" y="1.67" class="l">tests</text><text x="20.04" y="1.67" class="j">Yes</text></symbol><symbol id="35"><text y="1.67" class="k">?</text><text x="2.004" y="1.67" class="l">Pick</text><text x="7.014" y="1.67" class="l">a</text><text x="9.018" y="1.67" class="l">test</text><text x="14.028" y="1.67" class="l">runner</text><text x="21.042" y="1.67" class="f">(Use</text><text x="26.052" y="1.67" class="f">arrow</text><text x="32.064" y="1.67" class="f">keys)</text></symbol><symbol id="36"><text y="1.67" class="j">❯</text><text x="2.004" y="1.67" class="j">Jest</text></symbol><symbol id="37"><text x="2.004" y="1.67" class="f">Karma</text><text x="8.016" y="1.67" class="f">and</text><text x="12.024" y="1.67" class="f">Mocha</text></symbol><symbol id="38"><text y="1.67" class="k">?</text><text x="2.004" y="1.67" class="l">Pick</text><text x="7.014" y="1.67" class="l">a</text><text x="9.018" y="1.67" class="l">test</text><text x="14.028" y="1.67" class="l">runner</text><text x="21.042" y="1.67" class="j">jest</text></symbol><symbol id="39"><text y="1.67" class="k">?</text><text x="2.004" y="1.67" class="l">Setup</text><text x="8.016" y="1.67" class="l">e2e</text><text x="12.024" y="1.67" class="l">tests</text><text x="18.036" y="1.67" class="l">with</text><text x="23.046" y="1.67" class="l">Nightwatch?</text><text x="35.07" y="1.67" class="f">(Y/n)</text></symbol><symbol id="40"><text y="1.67" class="k">?</text><text x="2.004" y="1.67" class="l">Setup</text><text x="8.016" y="1.67" class="l">e2e</text><text x="12.024" y="1.67" class="l">tests</text><text x="18.036" y="1.67" class="l">with</text><text x="23.046" y="1.67" class="l">Nightwatch?</text><text x="35.07" y="1.67" class="j">Yes</text></symbol><symbol id="41"><text y="1.67" class="k">?</text><text x="2.004" y="1.67" class="l">Should</text><text x="9.018" y="1.67" class="l">we</text><text x="12.024" y="1.67" class="l">run</text><text x="16.032" y="1.67" class="l">`npm</text><text x="21.042" y="1.67" class="l">install`</text><text x="30.06" y="1.67" class="l">for</text><text x="34.068" y="1.67" class="l">you</text><text x="38.076" y="1.67" class="l">after</text><text x="44.088" y="1.67" class="l">the</text><text x="48.096" y="1.67" class="l">project</text><text x="56.112" y="1.67" class="l">has</text><text x="60.12" y="1.67" class="l">been</text><text x="65.13" y="1.67" class="l">created?</text><text x="74.148" y="1.67" class="l">(recommended)</text><text x="88.176" y="1.67" class="f">(Use</text><text x="93.186" y="1.67" class="f">arrow</text><text x="99.198" y="1.67" class="f">ke</text></symbol><symbol id="42"><text y="1.67" class="f">ys)</text></symbol><symbol id="43"><text y="1.67" class="j">❯</text><text x="2.004" y="1.67" class="j">Yes,</text><text x="7.014" y="1.67" class="j">use</text><text x="11.022" y="1.67" class="j">NPM</text></symbol><symbol id="44"><text x="2.004" y="1.67" class="f">Yes,</text><text x="7.014" y="1.67" class="f">use</text><text x="11.022" y="1.67" class="f">Yarn</text></symbol><symbol id="45"><text x="2.004" y="1.67" class="f">No,</text><text x="6.012" y="1.67" class="f">I</text><text x="8.016" y="1.67" class="f">will</text><text x="13.026" y="1.67" class="f">handle</text><text x="20.04" y="1.67" class="f">that</text><text x="25.05" y="1.67" class="f">myself</text></symbol><symbol id="46"><text y="1.67" class="k">?</text><text x="2.004" y="1.67" class="l">Should</text><text x="9.018" y="1.67" class="l">we</text><text x="12.024" y="1.67" class="l">run</text><text x="16.032" y="1.67" class="l">`npm</text><text x="21.042" y="1.67" class="l">install`</text><text x="30.06" y="1.67" class="l">for</text><text x="34.068" y="1.67" class="l">you</text><text x="38.076" y="1.67" class="l">after</text><text x="44.088" y="1.67" class="l">the</text><text x="48.096" y="1.67" class="l">project</text><text x="56.112" y="1.67" class="l">has</text><text x="60.12" y="1.67" class="l">been</text><text x="65.13" y="1.67" class="l">created?</text><text x="74.148" y="1.67" class="l">(recommended)</text><text x="88.176" y="1.67" class="j">npm</text></symbol><symbol id="47"><text x="3.006" y="1.67" class="f">vue-cli</text><text x="11.022" y="1.67" class="m">·</text><text x="13.026" y="1.67" class="f">Generated</text><text x="23.046" y="1.67" class="f">&quot;vue-test&quot;.</text></symbol><symbol id="48"><text y="1.67" class="f">#</text><text x="2.004" y="1.67" class="k">Installing</text><text x="13.026" y="1.67" class="k">project</text><text x="21.042" y="1.67" class="k">dependencies</text><text x="34.068" y="1.67" class="k">...</text></symbol><symbol id="49"><text y="1.67" class="f">#</text><text x="2.004" y="1.67" class="f">========================</text></symbol><symbol id="a"><path fill="transparent" d="M0 0h101v27H0z"/></symbol><symbol id="b"><path class="f" d="M0 0h1.102v2.171H0z"/></symbol></defs><path class="a" d="M0 0h101v58.617H0z"/><g style="animation-duration:13.420276999999997s;animation-iteration-count:1;animation-name:o;animation-fill-mode: forwards;animation-timing-function:steps(1,end)"><svg width="14241"><svg><use xlink:href="#a"/><use xlink:href="#b" x="-.004"/></svg><svg x="101"><use xlink:href="#a"/><use xlink:href="#b" x="-.004"/></svg><svg x="202"><use xlink:href="#a"/><use xlink:href="#b" x="19.996"/><use xlink:href="#1"/></svg><svg x="303"><use xlink:href="#a"/><use xlink:href="#b" x="19.996"/><use xlink:href="#1"/></svg><svg x="404"><use xlink:href="#a"/><use xlink:href="#b" x="19.996"/><use xlink:href="#1"/></svg><svg x="505"><use xlink:href="#a"/><use xlink:href="#b" x="20.996"/>0<text y="1.67" class="f">kestrel</text><path class="g" d="M9.018 0h9v2.171h-9z"/><text x="9.018" y="1.67" class="h"> ~/reps</text><text x="18.036" y="1.67" class="i"></text><text x="20.04" y="1.67" class="f">v</text><text x="21.042" y="1.67" class="m">ue</text><text x="24.048" y="1.67" class="m">init</text><text x="29.058" y="1.67" class="m">webpack</text><text x="37.074" y="1.67" class="m">vue-test</text></svg><svg x="606"><use xlink:href="#a"/><use xlink:href="#b" x="21.996"/>0<text y="1.67" class="f">kestrel</text><path class="g" d="M9.018 0h9v2.171h-9z"/><text x="9.018" y="1.67" class="h"> ~/reps</text><text x="18.036" y="1.67" class="i"></text><text x="20.04" y="1.67" class="f">vu</text><text x="22.044" y="1.67" class="m">e</text><text x="24.048" y="1.67" class="m">init</text><text x="29.058" y="1.67" class="m">webpack</text><text x="37.074" y="1.67" class="m">vue-test</text></svg><svg x="707"><use xlink:href="#a"/><use xlink:href="#b" x="44.996"/><use xlink:href="#2"/></svg><svg x="808"><use xlink:href="#a"/><use xlink:href="#b" x="-.004" y="2.146"/><use xlink:href="#2"/></svg><svg x="909"><use xlink:href="#a"/><use xlink:href="#b" x="-.004" y="2.146"/><use xlink:href="#2"/></svg><svg x="1010"><use xlink:href="#a"/><use xlink:href="#b" x="-.004" y="4.317"/><use xlink:href="#2"/></svg><svg x="1111"><use xlink:href="#a"/><use xlink:href="#2"/></svg><svg x="1212"><use xlink:href="#a"/><use xlink:href="#2"/></svg><svg x="1313"><use xlink:href="#a"/><use xlink:href="#2"/></svg><svg x="1414"><use xlink:href="#a"/><use xlink:href="#2"/><use xlink:href="#3" y="4.342"/></svg><svg x="1515"><use xlink:href="#a"/><use xlink:href="#2"/></svg><svg x="1616"><use xlink:href="#a"/><use xlink:href="#2"/></svg><svg x="1717"><use xlink:href="#a"/><use xlink:href="#2"/><use xlink:href="#4" y="4.342"/></svg><svg x="1818"><use xlink:href="#a"/><use xlink:href="#2"/></svg><svg x="1919"><use xlink:href="#a"/><use xlink:href="#2"/></svg><svg x="2020"><use xlink:href="#a"/><use xlink:href="#2"/><use xlink:href="#5" y="4.342"/></svg><svg x="2121"><use xlink:href="#a"/><use xlink:href="#2"/></svg><svg x="2222"><use xlink:href="#a"/><use xlink:href="#2"/><use xlink:href="#6" y="4.342"/></svg><svg x="2323"><use xlink:href="#a"/><use xlink:href="#2"/></svg><svg x="2424"><use xlink:href="#a"/><use xlink:href="#2"/></svg><svg x="2525"><use xlink:href="#a"/><use xlink:href="#2"/><use xlink:href="#7" y="4.342"/></svg><svg x="2626"><use xlink:href="#a"/><use xlink:href="#2"/></svg><svg x="2727"><use xlink:href="#a"/><use xlink:href="#2"/><use xlink:href="#8" y="4.342"/></svg><svg x="2828"><use xlink:href="#a"/><use xlink:href="#2"/></svg><svg x="2929"><use xlink:href="#a"/><use xlink:href="#2"/></svg><svg x="3030"><use xlink:href="#a"/><use xlink:href="#2"/><use xlink:href="#9" y="4.342"/></svg><svg x="3131"><use xlink:href="#a"/><use xlink:href="#2"/></svg><svg x="3232"><use xlink:href="#a"/><use xlink:href="#2"/><use xlink:href="#10" y="4.342"/></svg><svg x="3333"><use xlink:href="#a"/><use xlink:href="#2"/></svg><svg x="3434"><use xlink:href="#a"/><use xlink:href="#2"/><use xlink:href="#11" y="4.342"/></svg><svg x="3535"><use xlink:href="#a"/><use xlink:href="#2"/></svg><svg x="3636"><use xlink:href="#a"/><use xlink:href="#2"/><use xlink:href="#12" y="4.342"/></svg><svg x="3737"><use xlink:href="#a"/><use xlink:href="#2"/></svg><svg x="3838"><use xlink:href="#a"/><use xlink:href="#2"/><use xlink:href="#3" y="4.342"/></svg><svg x="3939"><use xlink:href="#a"/><use xlink:href="#2"/></svg><svg x="4040"><use xlink:href="#a"/><use xlink:href="#2"/><use xlink:href="#4" y="4.342"/></svg><svg x="4141"><use xlink:href="#a"/><use xlink:href="#2"/></svg><svg x="4242"><use xlink:href="#a"/><use xlink:href="#2"/><use xlink:href="#5" y="4.342"/></svg><svg x="4343"><use xlink:href="#a"/><use xlink:href="#2"/></svg><svg x="4444"><use xlink:href="#a"/><use xlink:href="#2"/><use xlink:href="#6" y="4.342"/></svg><svg x="4545"><use xlink:href="#a"/><use xlink:href="#2"/></svg><svg x="4646"><use xlink:href="#a"/><use xlink:href="#2"/></svg><svg x="4747"><use xlink:href="#a"/><use xlink:href="#2"/><use xlink:href="#7" y="4.342"/></svg><svg x="4848"><use xlink:href="#a"/><use xlink:href="#2"/></svg><svg x="4949"><use xlink:href="#a"/><use xlink:href="#2"/></svg><svg x="5050"><use xlink:href="#a"/><use xlink:href="#2"/><use xlink:href="#8" y="4.342"/></svg><svg x="5151"><use xlink:href="#a"/><use xlink:href="#2"/></svg><svg x="5252"><use xlink:href="#a"/><use xlink:href="#2"/><use xlink:href="#9" y="4.342"/></svg><svg x="5353"><use xlink:href="#a"/><use xlink:href="#2"/></svg><svg x="5454"><use xlink:href="#a"/><use xlink:href="#2"/><use xlink:href="#10" y="4.342"/></svg><svg x="5555"><use xlink:href="#a"/><use xlink:href="#2"/></svg><svg x="5656"><use xlink:href="#a"/><use xlink:href="#2"/><use xlink:href="#11" y="4.342"/></svg><svg x="5757"><use xlink:href="#a"/><use xlink:href="#2"/></svg><svg x="5858"><use xlink:href="#a"/><use xlink:href="#2"/><use xlink:href="#12" y="4.342"/></svg><svg x="5959"><use xlink:href="#a"/><use xlink:href="#2"/></svg><svg x="6060"><use xlink:href="#a"/><use xlink:href="#2"/><use xlink:href="#3" y="4.342"/></svg><svg x="6161"><use xlink:href="#a"/><use xlink:href="#2"/></svg><svg x="6262"><use xlink:href="#a"/><use xlink:href="#b" x="-.004" y="4.317"/><use xlink:href="#2"/></svg><svg x="6363"><use xlink:href="#a"/><use xlink:href="#b" x="25.996" y="4.317"/><use xlink:href="#2"/><use xlink:href="#13" y="4.342"/></svg><svg x="6464"><use xlink:href="#a"/><use xlink:href="#b" x="-.004" y="4.317"/><use xlink:href="#2"/><use xlink:href="#13" y="4.342"/></svg><svg x="6565"><use xlink:href="#a"/><use xlink:href="#b" x="25.996" y="4.317"/><use xlink:href="#2"/><use xlink:href="#13" y="4.342"/></svg><svg x="6666"><use xlink:href="#a"/><use xlink:href="#b" x="-.004" y="4.317"/><use xlink:href="#2"/></svg><svg x="6767"><use xlink:href="#a"/><use xlink:href="#b" x="22.996" y="4.317"/><use xlink:href="#2"/><use xlink:href="#14" y="4.342"/></svg><svg x="6868"><use xlink:href="#a"/><use xlink:href="#b" x="22.996" y="4.317"/><use xlink:href="#2"/><use xlink:href="#14" y="4.342"/></svg><svg x="6969"><use xlink:href="#a"/><use xlink:href="#b" x="-.004" y="6.488"/><use xlink:href="#2"/><use xlink:href="#14" y="4.342"/></svg><svg x="7070"><use xlink:href="#a"/><use xlink:href="#b" x="40.996" y="6.488"/><use xlink:href="#2"/><use xlink:href="#14" y="4.342"/><use xlink:href="#15" y="6.513"/></svg><svg x="7171"><use xlink:href="#a"/><use xlink:href="#b" x="-.004" y="6.488"/><use xlink:href="#2"/><use xlink:href="#14" y="4.342"/><use xlink:href="#15" y="6.513"/></svg><svg x="7272"><use xlink:href="#a"/><use xlink:href="#b" x="40.996" y="6.488"/><use xlink:href="#2"/><use xlink:href="#14" y="4.342"/><use xlink:href="#15" y="6.513"/></svg><svg x="7373"><use xlink:href="#a"/><use xlink:href="#b" x="-.004" y="6.488"/><use xlink:href="#2"/><use xlink:href="#14" y="4.342"/></svg><svg x="7474"><use xlink:href="#a"/><use xlink:href="#b" x="-.004" y="6.488"/><use xlink:href="#2"/><use xlink:href="#14" y="4.342"/><use xlink:href="#16" y="6.513"/></svg><svg x="7575"><use xlink:href="#a"/><use xlink:href="#b" x="37.996" y="6.488"/><use xlink:href="#2"/><use xlink:href="#14" y="4.342"/><use xlink:href="#16" y="6.513"/></svg><svg x="7676"><use xlink:href="#a"/><use xlink:href="#b" x="-.004" y="8.659"/><use xlink:href="#2"/><use xlink:href="#14" y="4.342"/><use xlink:href="#16" y="6.513"/></svg><svg x="7777"><use xlink:href="#a"/><use xlink:href="#b" x="-.004" y="8.659"/><use xlink:href="#2"/><use xlink:href="#14" y="4.342"/><use xlink:href="#16" y="6.513"/><use xlink:href="#17" y="8.684"/></svg><svg x="7878"><use xlink:href="#a"/><use xlink:href="#b" x="43.996" y="8.659"/><use xlink:href="#2"/><use xlink:href="#14" y="4.342"/><use xlink:href="#16" y="6.513"/><use xlink:href="#17" y="8.684"/></svg><svg x="7979"><use xlink:href="#a"/><use xlink:href="#b" x="-.004" y="8.659"/><use xlink:href="#2"/><use xlink:href="#14" y="4.342"/><use xlink:href="#16" y="6.513"/></svg><svg x="8080"><use xlink:href="#a"/><use xlink:href="#b" x="40.996" y="8.659"/><use xlink:href="#2"/><use xlink:href="#14" y="4.342"/><use xlink:href="#16" y="6.513"/><use xlink:href="#18" y="8.684"/></svg><svg x="8181"><use xlink:href="#a"/><use xlink:href="#b" x="-.004" y="8.659"/><use xlink:href="#2"/><use xlink:href="#14" y="4.342"/><use xlink:href="#16" y="6.513"/><use xlink:href="#18" y="8.684"/></svg><svg x="8282"><use xlink:href="#a"/><use xlink:href="#b" x="40.996" y="8.659"/><use xlink:href="#2"/><use xlink:href="#14" y="4.342"/><use xlink:href="#16" y="6.513"/><use xlink:href="#18" y="8.684"/></svg><svg x="8383"><use xlink:href="#a"/><use xlink:href="#b" x="-.004" y="10.83"/><use xlink:href="#2"/><use xlink:href="#14" y="4.342"/><use xlink:href="#16" y="6.513"/><use xlink:href="#18" y="8.684"/></svg><svg x="8484"><use xlink:href="#a"/><use xlink:href="#2"/><use xlink:href="#14" y="4.342"/><use xlink:href="#16" y="6.513"/><use xlink:href="#18" y="8.684"/></svg><svg x="8585"><use xlink:href="#a"/><use xlink:href="#2"/><use xlink:href="#14" y="4.342"/><use xlink:href="#16" y="6.513"/><use xlink:href="#18" y="8.684"/><use xlink:href="#19" y="10.855"/><use xlink:href="#20" y="13.026"/><use xlink:href="#21" y="15.197"/><use xlink:href="#22" y="17.368"/></svg><svg x="8686"><use xlink:href="#a"/><use xlink:href="#2"/><use xlink:href="#14" y="4.342"/><use xlink:href="#16" y="6.513"/><use xlink:href="#18" y="8.684"/><use xlink:href="#19" y="10.855"/><use xlink:href="#20" y="13.026"/><use xlink:href="#21" y="15.197"/><use xlink:href="#22" y="17.368"/></svg><svg x="8787"><use xlink:href="#a"/><use xlink:href="#2"/><use xlink:href="#14" y="4.342"/><use xlink:href="#16" y="6.513"/><use xlink:href="#18" y="8.684"/></svg><svg x="8888"><use xlink:href="#a"/><use xlink:href="#2"/><use xlink:href="#14" y="4.342"/><use xlink:href="#16" y="6.513"/><use xlink:href="#18" y="8.684"/><use xlink:href="#23" y="10.855"/></svg><svg x="8989"><use xlink:href="#a"/><use xlink:href="#2"/><use xlink:href="#14" y="4.342"/><use xlink:href="#16" y="6.513"/><use xlink:href="#18" y="8.684"/><use xlink:href="#23" y="10.855"/></svg><svg x="9090"><use xlink:href="#a"/><use xlink:href="#b" x="-.004" y="13.001"/><use xlink:href="#2"/><use xlink:href="#14" y="4.342"/><use xlink:href="#16" y="6.513"/><use xlink:href="#18" y="8.684"/><use xlink:href="#23" y="10.855"/></svg><svg x="9191"><use xlink:href="#a"/><use xlink:href="#b" x="-.004" y="13.001"/><use xlink:href="#2"/><use xlink:href="#14" y="4.342"/><use xlink:href="#16" y="6.513"/><use xlink:href="#18" y="8.684"/><use xlink:href="#23" y="10.855"/><use xlink:href="#24" y="13.026"/></svg><svg x="9292"><use xlink:href="#a"/><use xlink:href="#b" x="27.996" y="13.001"/><use xlink:href="#2"/><use xlink:href="#14" y="4.342"/><use xlink:href="#16" y="6.513"/><use xlink:href="#18" y="8.684"/><use xlink:href="#23" y="10.855"/><use xlink:href="#24" y="13.026"/></svg><svg x="9393"><use xlink:href="#a"/><use xlink:href="#b" x="-.004" y="13.001"/><use xlink:href="#2"/><use xlink:href="#14" y="4.342"/><use xlink:href="#16" y="6.513"/><use xlink:href="#18" y="8.684"/><use xlink:href="#23" y="10.855"/></svg><svg x="9494"><use xlink:href="#a"/><use xlink:href="#b" x="24.996" y="13.001"/><use xlink:href="#2"/><use xlink:href="#14" y="4.342"/><use xlink:href="#16" y="6.513"/><use xlink:href="#18" y="8.684"/><use xlink:href="#23" y="10.855"/><use xlink:href="#25" y="13.026"/></svg><svg x="9595"><use xlink:href="#a"/><use xlink:href="#b" x="-.004" y="15.172"/><use xlink:href="#2"/><use xlink:href="#14" y="4.342"/><use xlink:href="#16" y="6.513"/><use xlink:href="#18" y="8.684"/><use xlink:href="#23" y="10.855"/><use xlink:href="#25" y="13.026"/></svg><svg x="9696"><use xlink:href="#a"/><use xlink:href="#b" x="-.004" y="15.172"/><use xlink:href="#2"/><use xlink:href="#14" y="4.342"/><use xlink:href="#16" y="6.513"/><use xlink:href="#18" y="8.684"/><use xlink:href="#23" y="10.855"/><use xlink:href="#25" y="13.026"/><use xlink:href="#26" y="15.197"/></svg><svg x="9797"><use xlink:href="#a"/><use xlink:href="#b" x="37.996" y="15.172"/><use xlink:href="#2"/><use xlink:href="#14" y="4.342"/><use xlink:href="#16" y="6.513"/><use xlink:href="#18" y="8.684"/><use xlink:href="#23" y="10.855"/><use xlink:href="#25" y="13.026"/><use xlink:href="#26" y="15.197"/></svg><svg x="9898"><use xlink:href="#a"/><use xlink:href="#b" x="-.004" y="15.172"/><use xlink:href="#2"/><use xlink:href="#14" y="4.342"/><use xlink:href="#16" y="6.513"/><use xlink:href="#18" y="8.684"/><use xlink:href="#23" y="10.855"/><use xlink:href="#25" y="13.026"/></svg><svg x="9999"><use xlink:href="#a"/><use xlink:href="#b" x="-.004" y="15.172"/><use xlink:href="#2"/><use xlink:href="#14" y="4.342"/><use xlink:href="#16" y="6.513"/><use xlink:href="#18" y="8.684"/><use xlink:href="#23" y="10.855"/><use xlink:href="#25" y="13.026"/><use xlink:href="#27" y="15.197"/></svg><svg x="10100"><use xlink:href="#a"/><use xlink:href="#b" x="-.004" y="17.343"/><use xlink:href="#2"/><use xlink:href="#14" y="4.342"/><use xlink:href="#16" y="6.513"/><use xlink:href="#18" y="8.684"/><use xlink:href="#23" y="10.855"/><use xlink:href="#25" y="13.026"/><use xlink:href="#27" y="15.197"/></svg><svg x="10201"><use xlink:href="#a"/><use xlink:href="#2"/><use xlink:href="#14" y="4.342"/><use xlink:href="#16" y="6.513"/><use xlink:href="#18" y="8.684"/><use xlink:href="#23" y="10.855"/><use xlink:href="#25" y="13.026"/><use xlink:href="#27" y="15.197"/></svg><svg x="10302"><use xlink:href="#a"/><use xlink:href="#2"/><use xlink:href="#14" y="4.342"/><use xlink:href="#16" y="6.513"/><use xlink:href="#18" y="8.684"/><use xlink:href="#23" y="10.855"/><use xlink:href="#25" y="13.026"/><use xlink:href="#27" y="15.197"/><use xlink:href="#28" y="17.368"/><use xlink:href="#29" y="19.539"/><use xlink:href="#30" y="21.71"/><use xlink:href="#31" y="23.881"/></svg><svg x="10403"><use xlink:href="#a"/><use xlink:href="#2"/><use xlink:href="#14" y="4.342"/><use xlink:href="#16" y="6.513"/><use xlink:href="#18" y="8.684"/><use xlink:href="#23" y="10.855"/><use xlink:href="#25" y="13.026"/><use xlink:href="#27" y="15.197"/><use xlink:href="#28" y="17.368"/><use xlink:href="#29" y="19.539"/><use xlink:href="#30" y="21.71"/><use xlink:href="#31" y="23.881"/></svg><svg x="10504"><use xlink:href="#a"/><use xlink:href="#2"/><use xlink:href="#14" y="4.342"/><use xlink:href="#16" y="6.513"/><use xlink:href="#18" y="8.684"/><use xlink:href="#23" y="10.855"/><use xlink:href="#25" y="13.026"/><use xlink:href="#27" y="15.197"/></svg><svg x="10605"><use xlink:href="#a"/><use xlink:href="#2"/><use xlink:href="#14" y="4.342"/><use xlink:href="#16" y="6.513"/><use xlink:href="#18" y="8.684"/><use xlink:href="#23" y="10.855"/><use xlink:href="#25" y="13.026"/><use xlink:href="#27" y="15.197"/><use xlink:href="#32" y="17.368"/></svg><svg x="10706"><use xlink:href="#a"/><use xlink:href="#2"/><use xlink:href="#14" y="4.342"/><use xlink:href="#16" y="6.513"/><use xlink:href="#18" y="8.684"/><use xlink:href="#23" y="10.855"/><use xlink:href="#25" y="13.026"/><use xlink:href="#27" y="15.197"/><use xlink:href="#32" y="17.368"/></svg><svg x="10807"><use xlink:href="#a"/><use xlink:href="#2"/><use xlink:href="#14" y="4.342"/><use xlink:href="#16" y="6.513"/><use xlink:href="#18" y="8.684"/><use xlink:href="#23" y="10.855"/><use xlink:href="#25" y="13.026"/><use xlink:href="#27" y="15.197"/><use xlink:href="#32" y="17.368"/></svg><svg x="10908"><use xlink:href="#a"/><use xlink:href="#b" x="-.004" y="19.514"/><use xlink:href="#2"/><use xlink:href="#14" y="4.342"/><use xlink:href="#16" y="6.513"/><use xlink:href="#18" y="8.684"/><use xlink:href="#23" y="10.855"/><use xlink:href="#25" y="13.026"/><use xlink:href="#27" y="15.197"/><use xlink:href="#32" y="17.368"/></svg><svg x="11009"><use xlink:href="#a"/><use xlink:href="#b" x="-.004" y="19.514"/><use xlink:href="#2"/><use xlink:href="#14" y="4.342"/><use xlink:href="#16" y="6.513"/><use xlink:href="#18" y="8.684"/><use xlink:href="#23" y="10.855"/><use xlink:href="#25" y="13.026"/><use xlink:href="#27" y="15.197"/><use xlink:href="#32" y="17.368"/><use xlink:href="#33" y="19.539"/></svg><svg x="11110"><use xlink:href="#a"/><use xlink:href="#b" x="25.996" y="19.514"/><use xlink:href="#2"/><use xlink:href="#14" y="4.342"/><use xlink:href="#16" y="6.513"/><use xlink:href="#18" y="8.684"/><use xlink:href="#23" y="10.855"/><use xlink:href="#25" y="13.026"/><use xlink:href="#27" y="15.197"/><use xlink:href="#32" y="17.368"/><use xlink:href="#33" y="19.539"/></svg><svg x="11211"><use xlink:href="#a"/><use xlink:href="#b" x="-.004" y="19.514"/><use xlink:href="#2"/><use xlink:href="#14" y="4.342"/><use xlink:href="#16" y="6.513"/><use xlink:href="#18" y="8.684"/><use xlink:href="#23" y="10.855"/><use xlink:href="#25" y="13.026"/><use xlink:href="#27" y="15.197"/><use xlink:href="#32" y="17.368"/></svg><svg x="11312"><use xlink:href="#a"/><use xlink:href="#b" x="22.996" y="19.514"/><use xlink:href="#2"/><use xlink:href="#14" y="4.342"/><use xlink:href="#16" y="6.513"/><use xlink:href="#18" y="8.684"/><use xlink:href="#23" y="10.855"/><use xlink:href="#25" y="13.026"/><use xlink:href="#27" y="15.197"/><use xlink:href="#32" y="17.368"/><use xlink:href="#34" y="19.539"/></svg><svg x="11413"><use xlink:href="#a"/><use xlink:href="#b" x="-.004" y="19.514"/><use xlink:href="#2"/><use xlink:href="#14" y="4.342"/><use xlink:href="#16" y="6.513"/><use xlink:href="#18" y="8.684"/><use xlink:href="#23" y="10.855"/><use xlink:href="#25" y="13.026"/><use xlink:href="#27" y="15.197"/><use xlink:href="#32" y="17.368"/><use xlink:href="#34" y="19.539"/></svg><svg x="11514"><use xlink:href="#a"/><use xlink:href="#b" x="-.004" y="21.685"/><use xlink:href="#2"/><use xlink:href="#14" y="4.342"/><use xlink:href="#16" y="6.513"/><use xlink:href="#18" y="8.684"/><use xlink:href="#23" y="10.855"/><use xlink:href="#25" y="13.026"/><use xlink:href="#27" y="15.197"/><use xlink:href="#32" y="17.368"/><use xlink:href="#34" y="19.539"/></svg><svg x="11615"><use xlink:href="#a"/><use xlink:href="#2"/><use xlink:href="#14" y="4.342"/><use xlink:href="#16" y="6.513"/><use xlink:href="#18" y="8.684"/><use xlink:href="#23" y="10.855"/><use xlink:href="#25" y="13.026"/><use xlink:href="#27" y="15.197"/><use xlink:href="#32" y="17.368"/><use xlink:href="#34" y="19.539"/></svg><svg x="11716"><use xlink:href="#a"/><use xlink:href="#2"/><use xlink:href="#14" y="4.342"/><use xlink:href="#16" y="6.513"/><use xlink:href="#18" y="8.684"/><use xlink:href="#23" y="10.855"/><use xlink:href="#25" y="13.026"/><use xlink:href="#27" y="15.197"/><use xlink:href="#32" y="17.368"/><use xlink:href="#34" y="19.539"/><use xlink:href="#35" y="21.71"/><use xlink:href="#36" y="23.881"/><use xlink:href="#37" y="26.052"/><use xlink:href="#31" y="28.223"/></svg><svg x="11817"><use xlink:href="#a"/><use xlink:href="#2"/><use xlink:href="#14" y="4.342"/><use xlink:href="#16" y="6.513"/><use xlink:href="#18" y="8.684"/><use xlink:href="#23" y="10.855"/><use xlink:href="#25" y="13.026"/><use xlink:href="#27" y="15.197"/><use xlink:href="#32" y="17.368"/><use xlink:href="#34" y="19.539"/><use xlink:href="#35" y="21.71"/><use xlink:href="#36" y="23.881"/><use xlink:href="#37" y="26.052"/><use xlink:href="#31" y="28.223"/></svg><svg x="11918"><use xlink:href="#a"/><use xlink:href="#2"/><use xlink:href="#14" y="4.342"/><use xlink:href="#16" y="6.513"/><use xlink:href="#18" y="8.684"/><use xlink:href="#23" y="10.855"/><use xlink:href="#25" y="13.026"/><use xlink:href="#27" y="15.197"/><use xlink:href="#32" y="17.368"/><use xlink:href="#34" y="19.539"/></svg><svg x="12019"><use xlink:href="#a"/><use xlink:href="#2"/><use xlink:href="#14" y="4.342"/><use xlink:href="#16" y="6.513"/><use xlink:href="#18" y="8.684"/><use xlink:href="#23" y="10.855"/><use xlink:href="#25" y="13.026"/><use xlink:href="#27" y="15.197"/><use xlink:href="#32" y="17.368"/><use xlink:href="#34" y="19.539"/><use xlink:href="#38" y="21.71"/></svg><svg x="12120"><use xlink:href="#a"/><use xlink:href="#2"/><use xlink:href="#14" y="4.342"/><use xlink:href="#16" y="6.513"/><use xlink:href="#18" y="8.684"/><use xlink:href="#23" y="10.855"/><use xlink:href="#25" y="13.026"/><use xlink:href="#27" y="15.197"/><use xlink:href="#32" y="17.368"/><use xlink:href="#34" y="19.539"/><use xlink:href="#38" y="21.71"/></svg><svg x="12221"><use xlink:href="#a"/><use xlink:href="#2"/><use xlink:href="#14" y="4.342"/><use xlink:href="#16" y="6.513"/><use xlink:href="#18" y="8.684"/><use xlink:href="#23" y="10.855"/><use xlink:href="#25" y="13.026"/><use xlink:href="#27" y="15.197"/><use xlink:href="#32" y="17.368"/><use xlink:href="#34" y="19.539"/><use xlink:href="#38" y="21.71"/></svg><svg x="12322"><use xlink:href="#a"/><use xlink:href="#b" x="-.004" y="23.856"/><use xlink:href="#2"/><use xlink:href="#14" y="4.342"/><use xlink:href="#16" y="6.513"/><use xlink:href="#18" y="8.684"/><use xlink:href="#23" y="10.855"/><use xlink:href="#25" y="13.026"/><use xlink:href="#27" y="15.197"/><use xlink:href="#32" y="17.368"/><use xlink:href="#34" y="19.539"/><use xlink:href="#38" y="21.71"/></svg><svg x="12423"><use xlink:href="#a"/><use xlink:href="#b" x="40.996" y="23.856"/><use xlink:href="#2"/><use xlink:href="#14" y="4.342"/><use xlink:href="#16" y="6.513"/><use xlink:href="#18" y="8.684"/><use xlink:href="#23" y="10.855"/><use xlink:href="#25" y="13.026"/><use xlink:href="#27" y="15.197"/><use xlink:href="#32" y="17.368"/><use xlink:href="#34" y="19.539"/><use xlink:href="#38" y="21.71"/><use xlink:href="#39" y="23.881"/></svg><svg x="12524"><use xlink:href="#a"/><use xlink:href="#b" x="40.996" y="23.856"/><use xlink:href="#2"/><use xlink:href="#14" y="4.342"/><use xlink:href="#16" y="6.513"/><use xlink:href="#18" y="8.684"/><use xlink:href="#23" y="10.855"/><use xlink:href="#25" y="13.026"/><use xlink:href="#27" y="15.197"/><use xlink:href="#32" y="17.368"/><use xlink:href="#34" y="19.539"/><use xlink:href="#38" y="21.71"/><use xlink:href="#39" y="23.881"/></svg><svg x="12625"><use xlink:href="#a"/><use xlink:href="#b" x="-.004" y="23.856"/><use xlink:href="#2"/><use xlink:href="#14" y="4.342"/><use xlink:href="#16" y="6.513"/><use xlink:href="#18" y="8.684"/><use xlink:href="#23" y="10.855"/><use xlink:href="#25" y="13.026"/><use xlink:href="#27" y="15.197"/><use xlink:href="#32" y="17.368"/><use xlink:href="#34" y="19.539"/><use xlink:href="#38" y="21.71"/></svg><svg x="12726"><use xlink:href="#a"/><use xlink:href="#b" x="37.996" y="23.856"/><use xlink:href="#2"/><use xlink:href="#14" y="4.342"/><use xlink:href="#16" y="6.513"/><use xlink:href="#18" y="8.684"/><use xlink:href="#23" y="10.855"/><use xlink:href="#25" y="13.026"/><use xlink:href="#27" y="15.197"/><use xlink:href="#32" y="17.368"/><use xlink:href="#34" y="19.539"/><use xlink:href="#38" y="21.71"/><use xlink:href="#40" y="23.881"/></svg><svg x="12827"><use xlink:href="#a"/><use xlink:href="#b" x="-.004" y="23.856"/><use xlink:href="#2"/><use xlink:href="#14" y="4.342"/><use xlink:href="#16" y="6.513"/><use xlink:href="#18" y="8.684"/><use xlink:href="#23" y="10.855"/><use xlink:href="#25" y="13.026"/><use xlink:href="#27" y="15.197"/><use xlink:href="#32" y="17.368"/><use xlink:href="#34" y="19.539"/><use xlink:href="#38" y="21.71"/><use xlink:href="#40" y="23.881"/></svg><svg x="12928"><use xlink:href="#a"/><use xlink:href="#b" x="37.996" y="23.856"/><use xlink:href="#2"/><use xlink:href="#14" y="4.342"/><use xlink:href="#16" y="6.513"/><use xlink:href="#18" y="8.684"/><use xlink:href="#23" y="10.855"/><use xlink:href="#25" y="13.026"/><use xlink:href="#27" y="15.197"/><use xlink:href="#32" y="17.368"/><use xlink:href="#34" y="19.539"/><use xlink:href="#38" y="21.71"/><use xlink:href="#40" y="23.881"/></svg><svg x="13029"><use xlink:href="#a"/><use xlink:href="#b" x="-.004" y="26.027"/><use xlink:href="#2"/><use xlink:href="#14" y="4.342"/><use xlink:href="#16" y="6.513"/><use xlink:href="#18" y="8.684"/><use xlink:href="#23" y="10.855"/><use xlink:href="#25" y="13.026"/><use xlink:href="#27" y="15.197"/><use xlink:href="#32" y="17.368"/><use xlink:href="#34" y="19.539"/><use xlink:href="#38" y="21.71"/><use xlink:href="#40" y="23.881"/></svg><svg x="13130"><use xlink:href="#a"/><use xlink:href="#2"/><use xlink:href="#14" y="4.342"/><use xlink:href="#16" y="6.513"/><use xlink:href="#18" y="8.684"/><use xlink:href="#23" y="10.855"/><use xlink:href="#25" y="13.026"/><use xlink:href="#27" y="15.197"/><use xlink:href="#32" y="17.368"/><use xlink:href="#34" y="19.539"/><use xlink:href="#38" y="21.71"/><use xlink:href="#40" y="23.881"/></svg><svg x="13231"><use xlink:href="#a"/><use xlink:href="#2"/><use xlink:href="#14" y="4.342"/><use xlink:href="#16" y="6.513"/><use xlink:href="#18" y="8.684"/><use xlink:href="#23" y="10.855"/><use xlink:href="#25" y="13.026"/><use xlink:href="#27" y="15.197"/><use xlink:href="#32" y="17.368"/><use xlink:href="#34" y="19.539"/><use xlink:href="#38" y="21.71"/><use xlink:href="#40" y="23.881"/><use xlink:href="#41" y="26.052"/><use xlink:href="#42" y="28.223"/><use xlink:href="#43" y="30.394"/><use xlink:href="#44" y="32.565"/><use xlink:href="#45" y="34.736"/></svg><svg x="13332"><use xlink:href="#a"/><use xlink:href="#2"/><use xlink:href="#14" y="4.342"/><use xlink:href="#16" y="6.513"/><use xlink:href="#18" y="8.684"/><use xlink:href="#23" y="10.855"/><use xlink:href="#25" y="13.026"/><use xlink:href="#27" y="15.197"/><use xlink:href="#32" y="17.368"/><use xlink:href="#34" y="19.539"/><use xlink:href="#38" y="21.71"/><use xlink:href="#40" y="23.881"/><use xlink:href="#41" y="26.052"/><use xlink:href="#42" y="28.223"/><use xlink:href="#43" y="30.394"/><use xlink:href="#44" y="32.565"/><use xlink:href="#45" y="34.736"/></svg><svg x="13433"><use xlink:href="#a"/><use xlink:href="#2"/><use xlink:href="#14" y="4.342"/><use xlink:href="#16" y="6.513"/><use xlink:href="#18" y="8.684"/><use xlink:href="#23" y="10.855"/><use xlink:href="#25" y="13.026"/><use xlink:href="#27" y="15.197"/><use xlink:href="#32" y="17.368"/><use xlink:href="#34" y="19.539"/><use xlink:href="#38" y="21.71"/><use xlink:href="#40" y="23.881"/></svg><svg x="13534"><use xlink:href="#a"/><use xlink:href="#2"/><use xlink:href="#14" y="4.342"/><use xlink:href="#16" y="6.513"/><use xlink:href="#18" y="8.684"/><use xlink:href="#23" y="10.855"/><use xlink:href="#25" y="13.026"/><use xlink:href="#27" y="15.197"/><use xlink:href="#32" y="17.368"/><use xlink:href="#34" y="19.539"/><use xlink:href="#38" y="21.71"/><use xlink:href="#40" y="23.881"/><use xlink:href="#46" y="26.052"/></svg><svg x="13635"><use xlink:href="#a"/><use xlink:href="#2"/><use xlink:href="#14" y="4.342"/><use xlink:href="#16" y="6.513"/><use xlink:href="#18" y="8.684"/><use xlink:href="#23" y="10.855"/><use xlink:href="#25" y="13.026"/><use xlink:href="#27" y="15.197"/><use xlink:href="#32" y="17.368"/><use xlink:href="#34" y="19.539"/><use xlink:href="#38" y="21.71"/><use xlink:href="#40" y="23.881"/><use xlink:href="#46" y="26.052"/></svg><svg x="13736"><use xlink:href="#a"/><use xlink:href="#b" x="-.004" y="28.198"/><use xlink:href="#2"/><use xlink:href="#14" y="4.342"/><use xlink:href="#16" y="6.513"/><use xlink:href="#18" y="8.684"/><use xlink:href="#23" y="10.855"/><use xlink:href="#25" y="13.026"/><use xlink:href="#27" y="15.197"/><use xlink:href="#32" y="17.368"/><use xlink:href="#34" y="19.539"/><use xlink:href="#38" y="21.71"/><use xlink:href="#40" y="23.881"/><use xlink:href="#46" y="26.052"/></svg><svg x="13837"><use xlink:href="#a"/><use xlink:href="#b" x="-.004" y="30.369"/><use xlink:href="#2"/><use xlink:href="#14" y="4.342"/><use xlink:href="#16" y="6.513"/><use xlink:href="#18" y="8.684"/><use xlink:href="#23" y="10.855"/><use xlink:href="#25" y="13.026"/><use xlink:href="#27" y="15.197"/><use xlink:href="#32" y="17.368"/><use xlink:href="#34" y="19.539"/><use xlink:href="#38" y="21.71"/><use xlink:href="#40" y="23.881"/><use xlink:href="#46" y="26.052"/></svg><svg x="13938"><use xlink:href="#a"/><use xlink:href="#b" x="-.004" y="32.54"/><use xlink:href="#2"/><use xlink:href="#14" y="4.342"/><use xlink:href="#16" y="6.513"/><use xlink:href="#18" y="8.684"/><use xlink:href="#23" y="10.855"/><use xlink:href="#25" y="13.026"/><use xlink:href="#27" y="15.197"/><use xlink:href="#32" y="17.368"/><use xlink:href="#34" y="19.539"/><use xlink:href="#38" y="21.71"/><use xlink:href="#40" y="23.881"/><use xlink:href="#46" y="26.052"/><use xlink:href="#47" y="30.394"/></svg><svg x="14039"><use xlink:href="#a"/><use xlink:href="#b" x="-.004" y="43.395"/><use xlink:href="#2"/><use xlink:href="#14" y="4.342"/><use xlink:href="#16" y="6.513"/><use xlink:href="#18" y="8.684"/><use xlink:href="#23" y="10.855"/><use xlink:href="#25" y="13.026"/><use xlink:href="#27" y="15.197"/><use xlink:href="#32" y="17.368"/><use xlink:href="#34" y="19.539"/><use xlink:href="#38" y="21.71"/><use xlink:href="#40" y="23.881"/><use xlink:href="#46" y="26.052"/><use xlink:href="#47" y="30.394"/><use xlink:href="#48" y="36.907"/><use xlink:href="#49" y="39.078"/></svg><svg x="14140"><use xlink:href="#a"/><use xlink:href="#2"/><use xlink:href="#14" y="4.342"/><use xlink:href="#16" y="6.513"/><use xlink:href="#18" y="8.684"/><use xlink:href="#23" y="10.855"/><use xlink:href="#25" y="13.026"/><use xlink:href="#27" y="15.197"/><use xlink:href="#32" y="17.368"/><use xlink:href="#34" y="19.539"/><use xlink:href="#38" y="21.71"/><use xlink:href="#40" y="23.881"/><use xlink:href="#46" y="26.052"/><use xlink:href="#47" y="30.394"/><use xlink:href="#48" y="36.907"/><use xlink:href="#49" y="39.078"/></svg></svg></g></g></svg></svg>